# xmcd
#
# Track frame offsets:
# 150
# 16314
# 35219
# 53444
# 69798
# 92374
# 108750
# 122115
# 140992
# 159849
# 177840
# 194742
# 214199
# 230958
#
# Disc length: 3310 seconds
#
#
# Revision: 0
# Processed by: cddbd v1.5.1PL0 Copyright (c) Steve Scherf et al.
# Submitted via: FreeRIP 2.942 
#
DISCID=c10cec0e
DTITLE=박상민 - 서랍속이야기
DYEAR=2005
DGENRE=Ballad
TTITLE0=그대만큼만
TTITLE1=눈물잔
TTITLE2=내말 들어봐요
TTITLE3=허락
TTITLE4=서랍속 이야기
TTITLE5=겨울햇살이 내리던
TTITLE6=KO? OK!
TTITLE7=야윈눈물
TTITLE8=행복한 사람
TTITLE9=Dream
TTITLE10=영원
TTITLE11=So sweet Lady
TTITLE12=마지막 꿈
TTITLE13=먼곳이라도
EXTD=10집
EXTT0=
EXTT1=
EXTT2=
EXTT3=
EXTT4=
EXTT5=
EXTT6=
EXTT7=
EXTT8=
EXTT9=
EXTT10=
EXTT11=
EXTT12=
EXTT13=
PLAYORDER=
